<?xml version="1.0" standalone="no"?>
<!DOCTYPE svg PUBLIC "-//W3C//DTD SVG 20010904//EN"
 "http://www.w3.org/TR/2001/REC-SVG-20010904/DTD/svg10.dtd">
<svg version="1.0" xmlns="http://www.w3.org/2000/svg"
 width="1080.000000pt" height="1080.000000pt" viewBox="0 0 1080.000000 1080.000000"
 preserveAspectRatio="xMidYMid meet">

<g transform="translate(0.000000,1080.000000) scale(0.100000,-0.100000)"
fill="#000000" stroke="none">
<path d="M5750 8629 c0 -29 -88 -187 -131 -234 -114 -123 -270 -139 -562 -55
-117 34 -127 35 -222 15 -155 -33 -332 -149 -446 -293 -70 -87 -125 -193 -135
-259 -6 -43 -9 -46 -58 -66 -89 -37 -248 -117 -346 -174 -747 -437 -1284
-1176 -1465 -2015 -46 -216 -57 -315 -62 -574 -9 -405 35 -709 153 -1065 l36
-106 66 -7 c459 -47 773 -306 869 -717 24 -103 26 -132 26 -299 -1 -102 -5
-207 -10 -235 l-9 -50 -7 70 c-57 549 -280 861 -714 999 -134 43 -346 76 -486
76 -71 0 -54 -8 44 -21 455 -59 776 -310 955 -746 24 -59 44 -113 44 -119 0
-6 -46 -25 -102 -43 -342 -106 -571 -77 -755 93 -87 81 -146 166 -263 381
-106 194 -203 345 -253 393 -31 30 -36 32 -60 21 -42 -19 -34 -48 29 -109 91
-90 145 -171 282 -425 99 -184 179 -301 258 -375 187 -174 437 -205 773 -93
l103 34 62 -53 c33 -29 64 -57 68 -63 4 -5 8 -36 8 -67 0 -31 4 -59 9 -62 10
-7 21 27 21 67 0 15 2 27 5 27 3 0 49 -33 103 -73 125 -93 356 -231 497 -298
472 -223 961 -318 1491 -290 683 35 1308 284 1831 727 516 437 896 1078 1023
1725 12 57 23 114 25 125 4 18 17 24 71 34 143 27 287 131 392 283 28 41 99
161 157 267 129 234 167 291 256 385 87 91 88 107 10 133 -33 12 -34 11 -92
-48 -76 -78 -140 -175 -251 -377 -160 -295 -232 -391 -353 -472 -110 -73 -189
-95 -340 -95 -94 1 -143 6 -225 27 -88 21 -207 60 -218 72 -7 7 61 174 103
253 129 241 298 405 528 512 102 47 200 75 353 100 l119 20 -139 -5 c-444 -16
-781 -186 -959 -486 -79 -134 -139 -332 -159 -528 -12 -109 -13 -113 -21 -71
-5 25 -9 128 -10 230 0 165 3 197 26 297 45 196 97 297 215 424 112 119 268
213 423 255 35 10 65 18 67 19 7 5 -85 290 -132 408 -276 686 -784 1252 -1431
1593 -55 29 -138 69 -185 90 -47 20 -107 55 -135 79 -27 23 -63 49 -80 59 -16
10 -42 37 -56 61 -49 79 -218 140 -428 153 l-111 7 26 39 c71 104 71 255 -1
397 -39 76 -115 154 -115 118z m-872 -408 c9 -5 -18 -19 -80 -40 -109 -39
-215 -90 -264 -128 -54 -44 -121 -135 -165 -225 -39 -81 -42 -73 -12 27 53
172 205 330 350 364 49 12 154 13 171 2z m1196 -256 c132 -43 257 -107 316
-163 43 -40 50 -51 35 -51 -41 0 -126 37 -246 109 -68 41 -160 90 -204 108
l-80 33 52 -6 c29 -3 86 -17 127 -30z m-1618 -319 c356 -40 557 -50 969 -50
431 -1 669 11 1033 51 133 14 246 23 250 19 10 -10 6 -270 -5 -326 l-9 -45
-49 5 c-94 9 -250 3 -320 -14 -100 -24 -230 -91 -375 -191 -253 -177 -362
-213 -510 -169 -81 24 -121 55 -222 169 -51 58 -123 128 -159 155 -77 59 -199
111 -314 135 -110 23 -340 23 -463 0 -51 -9 -96 -15 -99 -11 -9 8 -17 261 -10
280 8 21 24 20 283 -8z m302 -460 c88 -19 203 -65 269 -109 54 -36 125 -105
225 -219 131 -148 291 -184 471 -104 29 12 123 71 210 130 168 114 285 176
382 201 72 19 227 31 279 21 l37 -7 -32 -57 c-70 -126 -159 -217 -297 -307
-86 -55 -150 -85 -292 -135 l-105 -38 -6 -51 c-10 -74 -13 -78 -66 -91 -81
-20 -599 -25 -718 -7 -112 17 -125 27 -125 93 0 23 -6 47 -13 53 -8 6 -49 22
-93 37 -251 83 -456 228 -566 399 -42 65 -88 157 -88 175 0 7 45 16 165 34 59
9 292 -3 363 -18z m2514 -622 c49 -26 92 -52 94 -58 3 -9 -148 -309 -193 -382
-11 -18 -15 -17 -92 21 -45 21 -91 49 -102 61 l-20 21 87 169 c76 148 117 214
132 214 2 0 44 -21 94 -46z m-3934 -493 c14 -9 35 -95 47 -193 8 -65 0 -74
-80 -85 -78 -10 -81 -17 -102 -198 -26 -231 -24 -687 4 -914 23 -184 23 -185
103 -196 86 -12 87 -15 66 -147 -10 -64 -24 -118 -32 -124 -9 -8 -30 -8 -66
-2 -29 5 -93 15 -141 23 -49 7 -99 20 -111 29 -42 27 -84 236 -106 524 -7 81
-16 158 -21 171 -9 22 -13 23 -67 18 -31 -3 -63 -3 -70 2 -8 5 -18 54 -27 127
-16 135 -13 144 54 144 20 0 53 5 73 10 44 13 43 7 58 230 13 187 45 396 72
468 24 63 27 65 193 96 147 29 137 28 153 17z m722 -16 c215 -14 396 -28 402
-31 7 -5 8 -247 3 -754 l-7 -748 30 -7 c17 -3 35 -12 40 -18 5 -7 13 -62 17
-124 6 -102 5 -112 -12 -121 -10 -5 -88 -13 -174 -17 -128 -5 -157 -4 -167 8
-8 9 -12 96 -14 283 l-3 269 -133 -1 c-77 -1 -137 -5 -143 -11 -6 -6 -15 -115
-21 -254 -7 -160 -15 -248 -23 -257 -15 -17 -351 -60 -364 -47 -15 15 -41 237
-30 251 5 6 35 14 66 16 78 7 83 16 83 158 l0 116 -32 15 -33 14 -3 117 -3
116 43 24 43 23 2 65 c1 36 7 195 13 353 13 317 13 317 -45 317 -58 0 -67 21
-56 143 5 58 12 111 16 116 9 16 66 14 505 -14z m1580 -39 c0 -58 -30 -425
-46 -562 -11 -86 -12 -87 -142 -79 -62 4 -119 13 -129 20 -16 12 -16 24 -5
156 16 188 16 225 -3 232 -22 9 -257 -13 -272 -25 -10 -8 -13 -131 -13 -618 0
-533 2 -609 15 -620 22 -18 244 -5 264 15 11 10 19 68 29 207 8 106 19 199 25
206 9 11 35 12 126 7 64 -4 122 -12 130 -19 15 -12 15 -16 -14 -440 -8 -126
-19 -224 -26 -232 -6 -8 -30 -14 -54 -14 -23 0 -76 -3 -118 -6 l-77 -7 -1
-181 c-1 -100 -4 -194 -8 -211 -6 -28 -13 -32 -106 -64 -55 -18 -122 -34 -150
-35 l-49 -1 -28 95 c-37 123 -35 138 22 160 52 20 57 33 59 148 l1 72 -42 0
c-24 -1 -116 -5 -204 -10 -89 -5 -171 -6 -183 -3 -25 6 -28 19 -35 145 -5 119
1 130 75 138 46 4 54 8 60 30 9 33 10 1134 1 1185 -7 40 -8 40 -60 46 -29 4
-56 10 -60 14 -11 11 -20 228 -11 247 12 23 35 26 289 39 124 6 286 14 360 18
74 5 190 9 258 9 l122 2 0 -64z m670 39 c215 -14 396 -28 402 -31 7 -5 8 -247
3 -754 l-7 -748 30 -7 c17 -3 35 -12 40 -18 5 -7 12 -62 16 -124 6 -102 5
-113 -11 -121 -10 -5 -88 -13 -174 -17 -128 -5 -157 -4 -167 8 -8 9 -12 96
-14 283 l-3 269 -133 -1 c-82 -1 -137 -5 -144 -12 -7 -7 -15 -106 -22 -256 -6
-135 -15 -250 -21 -255 -10 -10 -280 -51 -334 -51 -17 0 -32 4 -36 9 -3 6 -12
61 -19 123 -16 129 -13 138 46 138 40 0 77 14 90 34 4 6 8 63 8 127 l0 115
-32 15 -33 14 -3 117 -3 117 41 21 c24 12 41 29 44 43 2 12 9 172 15 356 8
246 8 338 0 348 -6 7 -26 13 -45 13 -35 0 -64 22 -64 48 1 46 19 203 25 212 9
15 67 13 505 -15z m840 10 c231 -20 247 -22 254 -40 8 -21 -12 -223 -25 -246
-7 -14 -21 -19 -55 -19 -27 0 -46 -5 -49 -12 -2 -7 -9 -286 -15 -620 -8 -439
-8 -613 0 -628 9 -17 21 -20 70 -20 84 0 94 -16 88 -152 -2 -57 -7 -109 -11
-115 -11 -18 -527 -19 -545 -1 -14 14 -17 225 -4 246 5 7 26 15 48 19 21 3 44
10 50 15 8 6 14 113 18 346 3 185 9 470 12 633 7 330 7 329 -61 329 -34 0 -65
21 -65 43 0 20 20 191 26 215 6 27 13 28 264 7z m-1298 -2072 c2 -10 0 -110
-5 -222 -4 -112 -6 -210 -3 -218 4 -10 23 -13 78 -11 l73 3 0 175 0 175 66 3
66 3 6 -83 c4 -46 7 -126 7 -179 0 -74 4 -100 15 -109 17 -14 22 -145 5 -155
-5 -3 -10 -43 -10 -89 0 -79 1 -83 25 -94 23 -11 25 -17 25 -77 l0 -65 -93 0
-94 0 -6 161 c-4 88 -9 164 -12 170 -10 15 -155 11 -161 -4 -2 -7 -8 -87 -12
-178 l-7 -164 -102 -3 -103 -3 0 71 c0 66 1 70 23 70 39 0 44 12 50 115 5 97
4 101 -19 120 -23 19 -24 25 -18 83 5 43 11 62 21 62 23 0 33 47 33 166 l0
114 -30 0 c-25 0 -30 5 -39 38 -6 20 -11 51 -11 69 l0 31 103 20 c130 25 124
25 129 5z m1003 -30 c4 -27 9 -56 12 -65 3 -12 -4 -21 -21 -28 -33 -12 -33
-14 -46 -375 -10 -296 -10 -300 10 -314 15 -10 20 -24 20 -61 0 -85 -6 -88
-128 -73 -48 5 -54 8 -59 34 -3 16 -8 29 -11 29 -2 0 -24 -18 -48 -40 -24 -22
-50 -40 -59 -40 -8 0 -60 22 -114 49 l-98 50 -6 212 c-4 117 -7 276 -7 354 0
146 -5 165 -42 165 -26 0 -31 21 -23 86 l7 57 86 -7 c48 -4 92 -12 98 -17 7
-6 13 -129 18 -381 6 -330 9 -374 23 -385 29 -22 46 -14 118 53 l69 64 13 327
c7 179 14 327 16 329 5 5 106 21 139 23 25 1 27 -3 33 -46z m290 31 c137 -10
223 -21 227 -28 4 -6 8 -109 8 -228 0 -182 -2 -219 -15 -232 -14 -14 -13 -21
11 -68 15 -29 26 -68 26 -87 -1 -64 -31 -294 -39 -302 -5 -4 -107 -10 -229
-14 l-221 -7 -6 23 c-14 53 -8 106 15 121 21 14 22 23 29 259 4 134 8 286 8
337 l1 93 -30 6 c-27 5 -30 9 -30 43 0 46 10 100 19 100 3 0 105 -7 226 -16z
m428 1 c44 -8 83 -17 88 -20 15 -10 32 -87 48 -230 l16 -140 38 3 c20 2 37 1
37 -1 0 -2 5 -29 11 -61 12 -67 3 -86 -41 -86 -15 0 -32 -6 -37 -12 -5 -7 -17
-82 -26 -167 -10 -97 -23 -166 -34 -190 -17 -34 -21 -37 -96 -50 -50 -10 -81
-11 -87 -5 -6 6 -13 37 -16 71 l-7 62 37 6 c20 4 40 15 45 24 5 9 14 84 21
168 9 117 10 185 1 290 -17 196 -14 189 -67 202 -35 9 -44 15 -40 29 2 9 7 33
11 52 7 38 15 70 18 70 1 0 37 -7 80 -15z"/>
<path d="M3926 5774 c-13 -34 -27 -663 -15 -686 11 -20 17 -20 131 -16 84 4
123 9 133 19 10 11 14 93 20 341 l6 328 -23 9 c-14 5 -74 12 -135 16 -100 7
-111 6 -117 -11z"/>
<path d="M6176 5774 c-14 -36 -28 -662 -15 -685 11 -21 17 -21 132 -17 101 4
122 8 134 24 9 13 13 57 13 159 0 78 3 223 7 323 l6 181 -25 10 c-13 5 -74 12
-135 16 -101 7 -110 6 -117 -11z"/>
<path d="M7106 3828 c-3 -13 -6 -65 -6 -115 l0 -93 43 0 c89 0 88 -1 85 119
l-3 106 -56 3 c-52 3 -57 1 -63 -20z"/>
<path d="M7145 3473 c-53 -8 -55 -15 -55 -159 l0 -134 70 0 c81 0 83 2 94 105
7 55 5 65 -26 125 -35 68 -36 69 -83 63z"/>
</g>
</svg>
